<svg xmlns="http://www.w3.org/2000/svg" xmlns:xlink="http://www.w3.org/1999/xlink" width="110" height="26" viewBox="0 0 110 26">
    <defs>
        <path id="a" d="M.399.11H10.82v22.836H.4z"/>
        <path id="c" d="M.416.379h12.563v15.28H.416z"/>
        <path id="e" d="M0 .152h20.592v20.406H0z"/>
    </defs>
    <g fill="none" fill-rule="evenodd">
        <path fill="#FFF" d="M25.643 15.809a7.631 7.631 0 0 1 7.641-7.633c2.75 0 5.288 1.46 6.663 3.802.428.73.152 1.641-.55 2.067a1.568 1.568 0 0 1-2.079-.547 4.638 4.638 0 0 0-4.034-2.311c-2.537 0-4.645 2.068-4.645 4.622 0 2.524 2.108 4.622 4.645 4.622a4.62 4.62 0 0 0 3.912-2.129c.46-.7 1.406-.881 2.11-.456.702.456.885 1.399.428 2.099-1.407 2.188-3.822 3.496-6.45 3.496-4.217 0-7.64-3.436-7.64-7.632M53.822 15.9c0-2.554-1.957-4.713-4.524-4.713s-4.737 2.159-4.737 4.713c0 2.554 2.17 4.5 4.737 4.5s4.524-1.946 4.524-4.5m2.995 0v5.96c0 .882-.642 1.521-1.529 1.521-.61 0-1.466-.64-1.466-1.52-1.315 1.094-2.782 1.52-4.524 1.52-4.31 0-7.733-3.194-7.733-7.48 0-4.288 3.424-7.694 7.733-7.694 4.31 0 7.52 3.406 7.52 7.693M67.848 9.667c0 .82-.673 1.52-1.528 1.52-2.567 0-4.646 2.068-4.646 4.622v6.112c0 .821-.673 1.52-1.497 1.52a1.529 1.529 0 0 1-1.529-1.52v-6.112c0-4.227 3.454-7.633 7.672-7.633.855 0 1.528.67 1.528 1.49"/>
        <g transform="translate(69.282 .495)">
            <mask id="b" fill="#fff">
                <use xlink:href="#a"/>
            </mask>
            <path fill="#FFF" d="M10.82 9.171c0 .82-.672 1.52-1.528 1.52h-2.17v10.735c0 .82-.672 1.52-1.528 1.52-.826 0-1.497-.7-1.497-1.52V10.69H1.896c-.826 0-1.497-.7-1.497-1.52 0-.821.671-1.49 1.497-1.49h2.2V1.599c0-.82.672-1.49 1.498-1.49.856 0 1.528.67 1.528 1.49v6.082h2.17c.856 0 1.528.669 1.528 1.49" mask="url(#b)"/>
        </g>
        <path fill="#FFF" d="M92.204 15.9c0-2.554-1.956-4.713-4.523-4.713-2.568 0-4.737 2.159-4.737 4.713 0 2.554 2.17 4.5 4.737 4.5s4.523-1.946 4.523-4.5m2.995 0v5.96c0 .882-.641 1.521-1.528 1.521-.61 0-1.467-.64-1.467-1.52-1.313 1.094-2.78 1.52-4.523 1.52-4.31 0-7.733-3.194-7.733-7.48 0-4.288 3.424-7.694 7.733-7.694 4.309 0 7.518 3.406 7.518 7.693"/>
        <g transform="translate(96.63 7.751)">
            <mask id="d" fill="#fff">
                <use xlink:href="#c"/>
            </mask>
            <path fill="#FFF" d="M12.657 13.227c.52.669.398 1.612-.275 2.098-.275.213-.58.335-.917.335-.458 0-.886-.213-1.191-.578L6.697 10.49l-3.575 4.592a1.555 1.555 0 0 1-1.193.578c-.336 0-.641-.122-.916-.335-.673-.486-.795-1.43-.275-2.098l4.034-5.2-4.034-5.2A1.503 1.503 0 0 1 1.013.7c.642-.517 1.59-.396 2.109.274l3.575 4.591L10.274.973c.52-.67 1.467-.791 2.108-.274.673.517.795 1.46.275 2.129l-4.034 5.2 4.034 5.2z" mask="url(#d)"/>
        </g>
        <path fill="#00C6FF" d="M20.55 18.887h-3.735v3.255h-3.29v3.715h7.025z"/>
        <g transform="translate(0 5.333)">
            <mask id="f" fill="#fff">
                <use xlink:href="#e"/>
            </mask>
            <path fill="#FFF" d="M20.521 9.639c-.054-.789-.238-1.636-.547-2.52-.308-.884-.777-1.782-1.39-2.667-.633-.912-1.477-1.734-2.51-2.444A10.436 10.436 0 0 0 12.357.392 10.26 10.26 0 0 0 8.436.297a10.272 10.272 0 0 0-3.663 1.4C3.62 2.412 2.616 3.374 1.794 4.56.968 5.749.424 7.03.178 8.372A10.216 10.216 0 0 0 .2 12.285c.259 1.269.758 2.478 1.482 3.593a10.237 10.237 0 0 0 2.808 2.865c.66.453 1.407.835 2.217 1.136a10.524 10.524 0 0 0 3.165.633l1.108.046v-3.786l-1.027-.035a6.828 6.828 0 0 1-1.373-.171c-.498-.122-.909-.269-1.221-.438a8.873 8.873 0 0 1-.771-.45 5.887 5.887 0 0 1-1.663-1.744 6.684 6.684 0 0 1-.908-2.311 6.894 6.894 0 0 1-.007-2.517 5.867 5.867 0 0 1 .974-2.326 6.09 6.09 0 0 1 1.79-1.705 7.106 7.106 0 0 1 2.332-.939 6.823 6.823 0 0 1 2.506-.04 5.751 5.751 0 0 1 2.323.95c.127.087.366.27.783.643.306.273.61.632.906 1.066.295.433.558.962.78 1.571.176.48.274 1.023.293 1.616l.034 1.022h3.86l-.07-1.325z" mask="url(#f)"/>
        </g>
    </g>
</svg>
