<svg xmlns="http://www.w3.org/2000/svg" xmlns:xlink="http://www.w3.org/1999/xlink" width="110" height="25" viewBox="0 0 110 25">
    <defs>
        <path id="a" d="M.398.105h10.423v21.958H.398z"/>
        <path id="c" d="M.416.364h12.563v14.693H.416z"/>
        <path id="e" d="M0 .146h20.592v19.621H0z"/>
    </defs>
    <g fill="none" fill-rule="evenodd">
        <path fill="#777" d="M25.643 15.2c0-4.063 3.423-7.338 7.641-7.338 2.751 0 5.288 1.404 6.663 3.655.428.702.153 1.578-.55 1.988-.734.38-1.65.146-2.078-.526-.825-1.374-2.354-2.222-4.035-2.222-2.537 0-4.646 1.988-4.646 4.444 0 2.427 2.11 4.444 4.646 4.444 1.59 0 3.057-.76 3.912-2.047.459-.672 1.406-.847 2.11-.438.702.438.885 1.345.427 2.017-1.406 2.105-3.82 3.363-6.449 3.363-4.218 0-7.64-3.304-7.64-7.34M53.821 15.289c0-2.457-1.956-4.532-4.523-4.532-2.567 0-4.737 2.075-4.737 4.532 0 2.456 2.17 4.327 4.737 4.327s4.523-1.871 4.523-4.327m2.996 0v5.73c0 .848-.642 1.463-1.529 1.463-.611 0-1.467-.615-1.467-1.462-1.314 1.052-2.78 1.462-4.523 1.462-4.31 0-7.733-3.071-7.733-7.193 0-4.123 3.424-7.398 7.733-7.398 4.31 0 7.519 3.275 7.519 7.398M67.848 9.295c0 .789-.672 1.461-1.529 1.461-2.567 0-4.645 1.989-4.645 4.445v5.877c0 .79-.672 1.462-1.497 1.462-.856 0-1.529-.673-1.529-1.462V15.2c0-4.064 3.454-7.34 7.671-7.34.857 0 1.529.644 1.529 1.434"/>
        <g transform="translate(69.282 .476)">
            <mask id="b" fill="#fff">
                <use xlink:href="#a"/>
            </mask>
            <path fill="#777" d="M10.82 8.818c0 .79-.672 1.462-1.528 1.462h-2.17v10.322c0 .789-.672 1.461-1.528 1.461-.825 0-1.497-.672-1.497-1.461V10.28H1.896c-.825 0-1.498-.673-1.498-1.462 0-.79.673-1.433 1.498-1.433h2.2V1.538c0-.79.673-1.433 1.498-1.433.856 0 1.528.644 1.528 1.433v5.847h2.17c.856 0 1.529.644 1.529 1.433" mask="url(#b)"/>
        </g>
        <path fill="#777" d="M92.204 15.289c0-2.457-1.956-4.532-4.523-4.532-2.567 0-4.737 2.075-4.737 4.532 0 2.456 2.17 4.327 4.737 4.327s4.523-1.871 4.523-4.327m2.995 0v5.73c0 .848-.641 1.463-1.528 1.463-.611 0-1.467-.615-1.467-1.462-1.314 1.052-2.78 1.462-4.523 1.462-4.31 0-7.733-3.071-7.733-7.193 0-4.123 3.423-7.398 7.733-7.398s7.518 3.275 7.518 7.398"/>
        <g transform="translate(96.63 7.453)">
            <mask id="d" fill="#fff">
                <use xlink:href="#c"/>
            </mask>
            <path fill="#777" d="M12.657 12.718c.52.643.398 1.55-.275 2.018a1.516 1.516 0 0 1-.917.321 1.58 1.58 0 0 1-1.191-.555l-3.577-4.415-3.575 4.415a1.58 1.58 0 0 1-1.193.555c-.336 0-.641-.117-.916-.321-.673-.468-.795-1.375-.275-2.018l4.034-5L.738 2.72c-.52-.644-.398-1.55.275-2.047.642-.497 1.59-.38 2.109.263L6.697 5.35 10.274.935c.52-.643 1.467-.76 2.108-.263.673.497.795 1.403.275 2.047l-4.034 5 4.034 5z" mask="url(#d)"/>
        </g>
        <path fill="#00C6FF" d="M20.549 18.16h-3.733v3.13h-3.291v3.573h7.025z"/>
        <g transform="translate(0 5.128)">
            <mask id="f" fill="#fff">
                <use xlink:href="#e"/>
            </mask>
            <path fill="#777" d="M20.521 9.268c-.054-.758-.238-1.573-.547-2.423-.309-.85-.776-1.713-1.39-2.564-.633-.877-1.477-1.668-2.511-2.35A10.646 10.646 0 0 0 12.358.377 10.66 10.66 0 0 0 8.437.285a10.523 10.523 0 0 0-3.664 1.348 9.91 9.91 0 0 0-2.98 2.751C.968 5.528.425 6.761.178 8.05A9.453 9.453 0 0 0 .2 11.812a9.786 9.786 0 0 0 1.482 3.455 10.045 10.045 0 0 0 2.808 2.755c.66.436 1.407.803 2.217 1.092a10.882 10.882 0 0 0 3.165.609l1.107.044v-3.64l-1.026-.034a7.087 7.087 0 0 1-1.373-.165c-.497-.116-.908-.258-1.221-.42a9.065 9.065 0 0 1-.771-.434 5.763 5.763 0 0 1-1.663-1.676 6.297 6.297 0 0 1-.909-2.222 6.39 6.39 0 0 1-.006-2.42 5.534 5.534 0 0 1 .974-2.237 6.004 6.004 0 0 1 1.79-1.639 7.276 7.276 0 0 1 2.332-.903 7.09 7.09 0 0 1 2.506-.04 5.88 5.88 0 0 1 2.323.915c.127.083.366.259.784.618.305.263.61.608.905 1.025.295.417.558.925.78 1.51.176.462.274.985.293 1.554l.034.983h3.86l-.07-1.274z" mask="url(#f)"/>
        </g>
    </g>
</svg>
